<svg xmlns="http://www.w3.org/2000/svg" xmlns:xlink="http://www.w3.org/1999/xlink" width="256" zoomAndPan="magnify" viewBox="0 0 192 191.999996" height="256" preserveAspectRatio="xMidYMid meet" version="1.0"><defs><clipPath id="f980255fb7"><path d="M 9.691406 9.691406 L 182.191406 9.691406 L 182.191406 182.191406 L 9.691406 182.191406 Z M 9.691406 9.691406 " clip-rule="nonzero"/></clipPath></defs><rect x="-19.2" width="230.4" fill="#ffffff" y="-19.2" height="230.399995" fill-opacity="1"/><rect x="-19.2" width="230.4" fill="#fffce9" y="-19.2" height="230.399995" fill-opacity="1"/><g clip-path="url(#f980255fb7)"><path fill="#1d81ce" d="M 182.191406 95.941406 C 182.191406 97.351562 182.15625 98.761719 182.085938 100.171875 C 182.019531 101.582031 181.914062 102.992188 181.777344 104.394531 C 181.636719 105.800781 181.464844 107.199219 181.257812 108.597656 C 181.050781 109.992188 180.808594 111.382812 180.535156 112.769531 C 180.257812 114.152344 179.949219 115.527344 179.605469 116.898438 C 179.261719 118.265625 178.886719 119.628906 178.476562 120.976562 C 178.066406 122.328125 177.625 123.667969 177.148438 124.996094 C 176.671875 126.328125 176.164062 127.644531 175.625 128.949219 C 175.085938 130.25 174.511719 131.542969 173.910156 132.816406 C 173.304688 134.09375 172.671875 135.355469 172.007812 136.597656 C 171.339844 137.84375 170.644531 139.070312 169.921875 140.28125 C 169.195312 141.492188 168.441406 142.683594 167.65625 143.859375 C 166.871094 145.03125 166.058594 146.1875 165.21875 147.320312 C 164.375 148.453125 163.507812 149.566406 162.613281 150.65625 C 161.71875 151.75 160.796875 152.816406 159.847656 153.863281 C 158.898438 154.910156 157.925781 155.929688 156.929688 156.929688 C 155.929688 157.925781 154.910156 158.898438 153.863281 159.847656 C 152.816406 160.796875 151.75 161.71875 150.65625 162.613281 C 149.566406 163.507812 148.453125 164.375 147.320312 165.21875 C 146.1875 166.058594 145.03125 166.871094 143.859375 167.65625 C 142.683594 168.441406 141.492188 169.195312 140.28125 169.921875 C 139.070312 170.644531 137.84375 171.339844 136.597656 172.007812 C 135.355469 172.671875 134.09375 173.304688 132.816406 173.910156 C 131.542969 174.511719 130.25 175.085938 128.949219 175.625 C 127.644531 176.164062 126.328125 176.671875 124.996094 177.148438 C 123.667969 177.625 122.328125 178.066406 120.976562 178.476562 C 119.628906 178.886719 118.265625 179.261719 116.898438 179.605469 C 115.527344 179.949219 114.152344 180.257812 112.769531 180.535156 C 111.382812 180.808594 109.992188 181.050781 108.597656 181.257812 C 107.199219 181.464844 105.800781 181.636719 104.394531 181.777344 C 102.992188 181.914062 101.582031 182.019531 100.171875 182.085938 C 98.761719 182.15625 97.351562 182.191406 95.941406 182.191406 C 94.53125 182.191406 93.117188 182.15625 91.707031 182.085938 C 90.300781 182.019531 88.890625 181.914062 87.488281 181.777344 C 86.082031 181.636719 84.683594 181.464844 83.285156 181.257812 C 81.890625 181.050781 80.5 180.808594 79.113281 180.535156 C 77.730469 180.257812 76.351562 179.949219 74.984375 179.605469 C 73.613281 179.261719 72.253906 178.886719 70.902344 178.476562 C 69.554688 178.066406 68.214844 177.625 66.882812 177.148438 C 65.554688 176.671875 64.238281 176.164062 62.933594 175.625 C 61.628906 175.085938 60.339844 174.511719 59.0625 173.910156 C 57.789062 173.304688 56.527344 172.671875 55.28125 172.007812 C 54.039062 171.339844 52.808594 170.644531 51.601562 169.921875 C 50.390625 169.195312 49.195312 168.441406 48.023438 167.65625 C 46.847656 166.871094 45.695312 166.058594 44.5625 165.21875 C 43.429688 164.375 42.316406 163.507812 41.226562 162.613281 C 40.132812 161.71875 39.066406 160.796875 38.019531 159.847656 C 36.972656 158.898438 35.953125 157.925781 34.953125 156.929688 C 33.953125 155.929688 32.980469 154.910156 32.035156 153.863281 C 31.085938 152.816406 30.164062 151.75 29.269531 150.65625 C 28.375 149.566406 27.503906 148.453125 26.664062 147.320312 C 25.824219 146.1875 25.011719 145.03125 24.226562 143.859375 C 23.441406 142.683594 22.6875 141.492188 21.960938 140.28125 C 21.234375 139.070312 20.539062 137.84375 19.875 136.597656 C 19.210938 135.355469 18.574219 134.09375 17.972656 132.816406 C 17.367188 131.542969 16.796875 130.25 16.257812 128.949219 C 15.714844 127.644531 15.207031 126.328125 14.734375 124.996094 C 14.257812 123.667969 13.816406 122.328125 13.40625 120.976562 C 12.996094 119.628906 12.617188 118.265625 12.277344 116.898438 C 11.933594 115.527344 11.625 114.152344 11.347656 112.769531 C 11.074219 111.382812 10.832031 109.992188 10.625 108.597656 C 10.417969 107.199219 10.246094 105.800781 10.105469 104.394531 C 9.96875 102.992188 9.863281 101.582031 9.796875 100.171875 C 9.726562 98.761719 9.691406 97.351562 9.691406 95.941406 C 9.691406 94.53125 9.726562 93.117188 9.796875 91.707031 C 9.863281 90.300781 9.96875 88.890625 10.105469 87.488281 C 10.246094 86.082031 10.417969 84.683594 10.625 83.285156 C 10.832031 81.890625 11.074219 80.5 11.347656 79.113281 C 11.625 77.730469 11.933594 76.351562 12.277344 74.984375 C 12.617188 73.613281 12.996094 72.253906 13.40625 70.902344 C 13.816406 69.554688 14.257812 68.214844 14.734375 66.882812 C 15.207031 65.554688 15.714844 64.238281 16.257812 62.933594 C 16.796875 61.628906 17.367188 60.339844 17.972656 59.0625 C 18.574219 57.789062 19.210938 56.527344 19.875 55.28125 C 20.539062 54.039062 21.234375 52.808594 21.960938 51.601562 C 22.6875 50.390625 23.441406 49.195312 24.226562 48.023438 C 25.011719 46.847656 25.824219 45.695312 26.664062 44.5625 C 27.503906 43.429688 28.375 42.316406 29.269531 41.226562 C 30.164062 40.132812 31.085938 39.066406 32.035156 38.019531 C 32.980469 36.972656 33.953125 35.953125 34.953125 34.953125 C 35.953125 33.953125 36.972656 32.980469 38.019531 32.035156 C 39.066406 31.085938 40.132812 30.164062 41.226562 29.269531 C 42.316406 28.375 43.429688 27.503906 44.5625 26.664062 C 45.695312 25.824219 46.847656 25.011719 48.023438 24.226562 C 49.195312 23.441406 50.390625 22.6875 51.601562 21.960938 C 52.808594 21.234375 54.039062 20.539062 55.28125 19.875 C 56.527344 19.210938 57.789062 18.574219 59.0625 17.972656 C 60.339844 17.367188 61.628906 16.796875 62.933594 16.257812 C 64.238281 15.714844 65.554688 15.207031 66.882812 14.734375 C 68.214844 14.257812 69.554688 13.816406 70.902344 13.40625 C 72.253906 12.996094 73.613281 12.617188 74.984375 12.277344 C 76.351562 11.933594 77.730469 11.625 79.113281 11.347656 C 80.5 11.074219 81.890625 10.832031 83.285156 10.625 C 84.683594 10.417969 86.082031 10.246094 87.488281 10.105469 C 88.890625 9.96875 90.300781 9.863281 91.707031 9.796875 C 93.117188 9.726562 94.53125 9.691406 95.941406 9.691406 C 97.351562 9.691406 98.761719 9.726562 100.171875 9.796875 C 101.582031 9.863281 102.992188 9.96875 104.394531 10.105469 C 105.800781 10.246094 107.199219 10.417969 108.597656 10.625 C 109.992188 10.832031 111.382812 11.074219 112.769531 11.347656 C 114.152344 11.625 115.527344 11.933594 116.898438 12.277344 C 118.265625 12.617188 119.628906 12.996094 120.976562 13.40625 C 122.328125 13.816406 123.667969 14.257812 124.996094 14.734375 C 126.328125 15.207031 127.644531 15.714844 128.949219 16.257812 C 130.25 16.796875 131.542969 17.367188 132.816406 17.972656 C 134.09375 18.574219 135.355469 19.210938 136.597656 19.875 C 137.84375 20.539062 139.070312 21.234375 140.28125 21.960938 C 141.492188 22.6875 142.683594 23.441406 143.859375 24.226562 C 145.03125 25.011719 146.1875 25.824219 147.320312 26.664062 C 148.453125 27.503906 149.566406 28.375 150.65625 29.269531 C 151.75 30.164062 152.816406 31.085938 153.863281 32.035156 C 154.910156 32.980469 155.929688 33.953125 156.929688 34.953125 C 157.925781 35.953125 158.898438 36.972656 159.847656 38.019531 C 160.796875 39.066406 161.71875 40.132812 162.613281 41.226562 C 163.507812 42.316406 164.375 43.429688 165.21875 44.5625 C 166.058594 45.695312 166.871094 46.847656 167.65625 48.023438 C 168.441406 49.195312 169.195312 50.390625 169.921875 51.601562 C 170.644531 52.808594 171.339844 54.039062 172.007812 55.28125 C 172.671875 56.527344 173.304688 57.789062 173.910156 59.0625 C 174.511719 60.339844 175.085938 61.628906 175.625 62.933594 C 176.164062 64.238281 176.671875 65.554688 177.148438 66.882812 C 177.625 68.214844 178.066406 69.554688 178.476562 70.902344 C 178.886719 72.253906 179.261719 73.613281 179.605469 74.984375 C 179.949219 76.351562 180.257812 77.730469 180.535156 79.113281 C 180.808594 80.5 181.050781 81.890625 181.257812 83.285156 C 181.464844 84.683594 181.636719 86.082031 181.777344 87.488281 C 181.914062 88.890625 182.019531 90.300781 182.085938 91.707031 C 182.15625 93.117188 182.191406 94.53125 182.191406 95.941406 Z M 182.191406 95.941406 " fill-opacity="1" fill-rule="nonzero"/></g><path fill="#ffffff" d="M 148.546875 94.453125 L 117.097656 94.453125 C 113.667969 94.453125 113.667969 89.277344 117.097656 89.277344 L 148.546875 89.277344 C 151.972656 89.277344 151.972656 94.453125 148.546875 94.453125 Z M 53.753906 129.652344 C 50.261719 129.652344 47.023438 127.773438 45.277344 124.800781 L 42.109375 119.167969 C 39.390625 114.511719 41.007812 108.558594 45.667969 105.839844 L 51.683594 102.347656 C 63.589844 92.898438 69.414062 80.605469 75.558594 65.59375 C 75.558594 65.59375 73.488281 59.320312 79.183594 56.082031 C 83 53.882812 87.917969 55.179688 90.117188 58.996094 L 121.433594 113.28125 C 124.539062 118.585938 120.65625 125.316406 114.511719 125.316406 C 112.183594 125.316406 109.980469 124.28125 108.492188 122.535156 C 101.441406 121.628906 94.519531 120.789062 87.660156 120.789062 C 83.648438 120.789062 79.894531 121.046875 76.335938 121.628906 C 77.113281 125.574219 75.496094 129.714844 72.066406 132.046875 L 75.105469 137.351562 C 77.890625 142.203125 74.328125 148.285156 68.699219 148.285156 C 66.113281 148.285156 63.71875 146.863281 62.425781 144.664062 Z M 56.535156 105.128906 L 64.6875 119.300781 C 78.019531 114.574219 90.894531 115.09375 105 116.90625 L 78.792969 71.417969 C 73.101562 84.746094 67.277344 95.941406 56.535156 105.128906 Z M 52.203125 108.039062 L 48.253906 110.304688 C 46.054688 111.597656 45.277344 114.445312 46.570312 116.582031 L 49.808594 122.210938 C 51.035156 124.410156 53.882812 125.121094 56.082031 123.894531 L 60.03125 121.5625 Z M 111.988281 118.585938 C 112.570312 119.429688 113.152344 120.140625 114.511719 120.140625 C 116.710938 120.140625 118.070312 117.746094 116.96875 115.871094 L 85.589844 61.582031 C 83.777344 58.414062 78.792969 61.128906 80.734375 64.429688 Z M 71.222656 122.726562 C 69.929688 123.050781 68.636719 123.441406 67.34375 123.894531 L 69.476562 127.582031 C 70.902344 126.351562 71.546875 124.539062 71.222656 122.726562 Z M 58.867188 128.226562 L 66.890625 142.074219 C 68.246094 144.402344 72 142.332031 70.640625 139.941406 L 62.617188 126.027344 Z M 106.488281 76.078125 C 104.546875 76.078125 103.253906 73.941406 104.289062 72.195312 L 120.011719 44.953125 C 121.691406 41.976562 126.15625 44.566406 124.476562 47.542969 L 108.753906 74.78125 C 108.234375 75.625 107.394531 76.078125 106.488281 76.078125 Z M 109.980469 86.300781 C 107.328125 86.300781 106.421875 82.804688 108.6875 81.511719 L 135.929688 65.722656 C 138.90625 64.042969 141.492188 68.507812 138.515625 70.253906 L 111.277344 85.976562 C 110.886719 86.171875 110.433594 86.300781 109.980469 86.300781 Z M 109.980469 86.300781 " fill-opacity="1" fill-rule="evenodd"/></svg>